<?xml version="1.0" standalone="no"?>
<!DOCTYPE svg PUBLIC "-//W3C//DTD SVG 20010904//EN"
 "http://www.w3.org/TR/2001/REC-SVG-20010904/DTD/svg10.dtd">
<svg version="1.0" xmlns="http://www.w3.org/2000/svg"
 width="512.000000pt" height="512.000000pt" viewBox="0 0 512.000000 512.000000"
 preserveAspectRatio="xMidYMid meet">
<metadata>
Created by potrace 1.11, written by Peter Selinger 2001-2013
</metadata>
<g transform="translate(0.000000,512.000000) scale(0.100000,-0.100000)"
fill="#000000" stroke="none">
<path d="M4395 5087 c-19 -19 -35 -41 -35 -48 1 -21 23 -45 48 -53 19 -6 30
-1 58 28 36 38 40 52 21 77 -26 34 -55 33 -92 -4z"/>
<path d="M4565 4993 c-39 -10 -82 -49 -318 -284 -250 -249 -267 -273 -271
-361 -2 -43 -7 -52 -49 -90 -25 -24 -68 -63 -94 -88 -27 -25 -101 -92 -163
-150 -63 -58 -144 -132 -180 -165 -90 -84 -202 -188 -216 -200 -6 -5 -60 -55
-120 -111 -60 -55 -122 -113 -139 -128 -41 -38 -111 -103 -246 -227 -63 -58
-127 -118 -143 -132 l-29 -27 -34 21 c-125 77 -299 140 -433 156 -232 28 -415
-25 -553 -161 -49 -47 -74 -84 -110 -156 -55 -112 -152 -245 -237 -323 -98
-92 -222 -138 -400 -152 -237 -18 -385 -88 -588 -280 -165 -155 -243 -356
-237 -615 2 -69 5 -134 8 -145 3 -11 8 -40 12 -65 11 -66 68 -236 109 -324 58
-124 123 -226 236 -370 41 -53 214 -220 282 -274 329 -257 726 -381 1048 -325
183 31 305 96 443 236 193 196 255 326 272 574 15 210 57 317 162 419 71 69
244 191 303 214 138 55 265 194 305 335 40 138 42 309 6 450 -26 97 -32 111
-102 251 l-55 112 44 48 c44 48 181 197 312 339 190 206 267 290 283 309 10
12 44 48 75 81 31 33 82 87 111 120 30 33 82 89 115 125 208 225 262 284 287
313 26 31 33 33 81 32 35 -1 67 5 93 17 58 29 529 502 551 553 25 58 21 126
-9 177 -34 59 -225 244 -270 263 -35 14 -100 18 -142 8z"/>
<path d="M4239 4931 c-34 -35 -36 -54 -9 -81 29 -29 54 -25 89 15 36 41 38 55
13 78 -27 25 -60 21 -93 -12z"/>
<path d="M4084 4776 c-39 -39 -42 -54 -14 -84 29 -30 51 -28 88 11 38 39 40
56 9 85 -31 30 -43 28 -83 -12z"/>
<path d="M5026 4479 c-39 -30 -48 -53 -35 -83 22 -47 66 -43 108 10 26 33 26
45 1 72 -26 27 -40 28 -74 1z"/>
<path d="M4891 4337 c-13 -6 -33 -24 -44 -39 -17 -23 -19 -32 -9 -52 18 -40
57 -44 93 -10 41 39 45 61 18 90 -26 28 -26 28 -58 11z"/>
<path d="M4745 4180 c-38 -15 -68 -57 -61 -84 6 -25 38 -42 66 -37 25 5 70 53
67 72 -3 19 -35 60 -46 58 -3 0 -15 -4 -26 -9z"/>
</g>
</svg>
